<svg xmlns="http://www.w3.org/2000/svg" version="1.1" xmlns:xlink="http://www.w3.org/1999/xlink" xmlns:svgjs="http://svgjs.dev/svgjs" width="1440" height="560" preserveAspectRatio="none" viewBox="0 0 1440 560"><g mask="url(&quot;#SvgjsMask1002&quot;)" fill="none"><path d="M9.082748486180911 452.8123080865898L-78.6278624143684 557.3417437359524 25.90157323499414 645.0523546365016 113.61218413554346 540.5229189871391z" fill="rgba(251, 146, 60, 1)" class="triangle-float1"></path><path d="M100.7409913956756 146.8281449304724L-13.844214814019494 88.4440662310657-72.2282935134262 203.0292724407608 42.3569126962689 261.4133511401675z" fill="rgba(251, 146, 60, 1)" class="triangle-float2"></path><path d="M914.131,159.313C957.147,161.597,1004.713,151.566,1025.888,114.053C1046.832,76.949,1028.075,32.933,1006.059,-3.545C984.997,-38.444,954.877,-69.993,914.131,-71.121C871.707,-72.295,832.914,-46.338,812.947,-8.888C794.059,26.539,800.501,68.782,821.197,103.185C841.191,136.422,875.399,157.256,914.131,159.313" fill="rgba(251, 146, 60, 1)" class="triangle-float1"></path><path d="M426.78980025060815 518.1116060964707L380.643947191136 441.3120096540294 303.8443507486947 487.4578627135015 349.9902038081668 564.2574591559429z" fill="rgba(251, 146, 60, 1)" class="triangle-float3"></path><path d="M684.3785904648983-16.16373908570332L621.6356512851456 70.1945080385307 782.544491561373 121.12979324604268z" fill="rgba(251, 146, 60, 1)" class="triangle-float2"></path><path d="M190.687,464.735C239.467,464.922,295.016,466.931,321.628,426.05C349.868,382.668,335.926,326.369,309.876,281.637C284.024,237.245,242.057,201.593,190.687,201.203C138.729,200.808,94.296,234.803,68.32,279.803C42.348,324.796,32.804,381.728,61.472,425.053C88.12,465.327,142.395,464.55,190.687,464.735" fill="rgba(251, 146, 60, 1)" class="triangle-float3"></path><path d="M249.165,234.287C284.922,235.444,324.204,229.502,342.875,198.984C362.142,167.491,352.326,127.951,333.737,96.053C315.303,64.422,285.726,36.282,249.165,38.187C214.703,39.982,194.992,73.773,178.59,104.135C163.294,132.449,150.06,164.951,165.4,193.242C181.286,222.538,215.856,233.209,249.165,234.287" fill="rgba(251, 146, 60, 1)" class="triangle-float1"></path><path d="M869.357,309.15C892.2,308.191,906.274,286.866,917.428,266.908C928.21,247.616,937.723,225.197,927.113,205.809C916.197,185.862,892.096,179.193,869.357,179.067C846.35,178.94,822.367,185.463,810.484,205.164C798.272,225.409,802.1,250.686,813.748,271.26C825.592,292.181,845.337,310.158,869.357,309.15" fill="rgba(251, 146, 60, 1)" class="triangle-float1"></path><path d="M570.079,758.984C623.258,755.817,665.728,718.167,690.451,670.978C713.3,627.366,712.397,576.161,688.378,533.182C663.721,489.061,620.621,456.027,570.079,455.588C518.849,455.143,475.783,487.943,448.169,531.096C417.735,578.656,395.386,637.175,422.02,686.963C449.767,738.83,511.361,762.481,570.079,758.984" fill="rgba(251, 146, 60, 1)" class="triangle-float2"></path><path d="M1472.473,720.282C1520.924,722.705,1561.406,686.363,1584.663,643.789C1606.903,603.076,1608.166,554.242,1585.192,513.938C1561.995,473.243,1519.311,447.578,1472.473,446.968C1424.548,446.344,1376.177,468.161,1354.549,510.932C1334.431,550.717,1356.287,594.619,1378.167,633.463C1400.643,673.364,1426.734,717.995,1472.473,720.282" fill="rgba(251, 146, 60, 1)" class="triangle-float1"></path></g><defs><mask id="SvgjsMask1002"><rect width="1440" height="560" fill="#ffffff"></rect></mask><style>
                @keyframes float1 {
                    0%{transform: translate(0, 0)}
                    50%{transform: translate(-10px, 0)}
                    100%{transform: translate(0, 0)}
                }

                .triangle-float1 {
                    animation: float1 5s infinite;
                }

                @keyframes float2 {
                    0%{transform: translate(0, 0)}
                    50%{transform: translate(-5px, -5px)}
                    100%{transform: translate(0, 0)}
                }

                .triangle-float2 {
                    animation: float2 4s infinite;
                }

                @keyframes float3 {
                    0%{transform: translate(0, 0)}
                    50%{transform: translate(0, -10px)}
                    100%{transform: translate(0, 0)}
                }

                .triangle-float3 {
                    animation: float3 6s infinite;
                }
            </style></defs></svg>